<?xml version="1.0" encoding="utf-8"?>
<!DOCTYPE svg PUBLIC "-//W3C//DTD SVG 1.1//EN" "http://www.w3.org/Graphics/SVG/1.1/DTD/svg11.dtd">
<svg version="1.1" class="cr_svg_icon" id="cr_group_layer" xmlns="http://www.w3.org/2000/svg" xmlns:xlink="http://www.w3.org/1999/xlink" x="0px" y="0px"
	 width="24px" height="24px" viewBox="0 0 24 24" enable-background="new 0 0 24 24" xml:space="preserve">
<g>
	<path fill="#757575" d="M12,14c1.381,0,2.631-0.561,3.536-1.465C16.439,11.631,17,10.381,17,9s-0.561-2.631-1.464-3.535
		C14.631,4.56,13.381,4,12,4S9.369,4.56,8.464,5.465C7.56,6.369,7,7.619,7,9s0.56,2.631,1.464,3.535C9.369,13.439,10.619,14,12,14z"
		/>
	<path fill="#757575" d="M20,15c0.689,0,1.314-0.279,1.768-0.73c0.453-0.453,0.732-1.078,0.732-1.77c0-0.69-0.279-1.315-0.732-1.768
		S20.689,10,20,10c-0.691,0-1.316,0.279-1.77,0.732c-0.451,0.453-0.73,1.078-0.73,1.768c0,0.691,0.279,1.316,0.73,1.77
		C18.684,14.723,19.309,15,20,15z"/>
	<path fill="#757575" d="M20,15.59c-1.331,0-2.332,0.406-2.917,0.969C15.968,15.641,14.205,15,12,15
		c-2.266,0-3.995,0.648-5.092,1.564C6.312,15.999,5.3,15.59,4,15.59c-2.188,0-3.5,1.09-3.5,2.182c0,0.545,1.312,1.093,3.5,1.093
		c0.604,0,1.146-0.052,1.623-0.134c-0.01,0.092-0.04,0.181-0.04,0.271c0,1,2.406,2,6.417,2c3.762,0,6.417-1,6.417-2
		c0-0.085-0.011-0.17-0.021-0.255c0.463,0.072,0.996,0.118,1.604,0.118c2.051,0,3.5-0.548,3.5-1.093
		C23.5,16.68,22.127,15.59,20,15.59z"/>
	<path fill="#757575" d="M4,15c0.69,0,1.315-0.279,1.768-0.732S6.5,13.189,6.5,12.5c0-0.689-0.279-1.314-0.732-1.768
		C5.315,10.28,4.69,10,4,10c-0.691,0-1.316,0.28-1.769,0.732C1.779,11.186,1.5,11.811,1.5,12.5c0,0.689,0.279,1.314,0.731,1.768
		C2.684,14.721,3.309,15,4,15z"/>
</g>
</svg>
