<?xml version="1.0" encoding="utf-8"?>
<!-- Generator: Adobe Illustrator 16.0.0, SVG Export Plug-In . SVG Version: 6.00 Build 0)  -->
<!DOCTYPE svg PUBLIC "-//W3C//DTD SVG 1.1//EN" "http://www.w3.org/Graphics/SVG/1.1/DTD/svg11.dtd">
<svg version="1.1" class="cr_svg_icon" id="cr_network_layer" xmlns="http://www.w3.org/2000/svg" xmlns:xlink="http://www.w3.org/1999/xlink" x="0px"
	 y="0px" width="24px" height="24px" viewBox="1 1 24 24" enable-background="new 1 1 24 24" xml:space="preserve">
<g>
	<g>
		<path fill="#757575" d="M20.102,9.902c-0.195,0-0.391,0.017-0.58,0.043c-0.17-3.093-2.73-5.547-5.861-5.547
			c-2.561,0-4.507,1.861-5.313,4.144c-0.43-0.111-1.108-0.398-1.573-0.398c-2.923,0-5.293,2.371-5.293,5.295
			c0,2.924,2.371,5.294,5.293,5.294c0.144,0,0.307,0,0.48,0c-0.603,1.093-0.356,2.497,0.647,3.306
			c0.463,0.374,1.049,0.582,1.644,0.582c0.799,0,1.542-0.357,2.042-0.978c0.566-0.7,0.718-1.604,0.47-2.411
			c0.285,0.074,0.58,0.111,0.879,0.111c0.57,0,1.127-0.14,1.623-0.399c0.004,0.661,0.293,1.308,0.836,1.745
			c0.398,0.32,0.904,0.5,1.418,0.5l0,0c0.686,0,1.328-0.305,1.758-0.842c0.371-0.459,0.541-1.031,0.492-1.617
			c0.443,0,0.801,0,1.039,0c2.439,0,4.418-1.979,4.418-4.418C24.521,11.879,22.541,9.902,20.102,9.902z M17.922,19.824
			c-0.496,0.611-1.389,0.707-2,0.215c-0.404-0.326-0.578-0.827-0.506-1.306c0.025-0.185,0.086-0.367,0.188-0.534l-0.693-0.564
			c-0.91,1.004-2.428,1.162-3.528,0.373l-0.583,0.723c0.001,0.002,0.003,0.003,0.003,0.003c0.643,0.636,0.713,1.667,0.133,2.386
			c-0.618,0.77-1.74,0.887-2.509,0.268c-0.765-0.621-0.885-1.74-0.266-2.507c0.043-0.056,0.096-0.1,0.142-0.146
			c0.604-0.593,1.544-0.687,2.25-0.204l0.583-0.723c-0.994-0.912-1.147-2.426-0.354-3.521l-0.706-0.576
			c-0.438,0.38-1.098,0.403-1.562,0.027c-0.523-0.423-0.606-1.19-0.183-1.715c0.423-0.524,1.191-0.606,1.715-0.182
			c0.498,0.401,0.591,1.11,0.239,1.628l0.7,0.569c0.909-0.984,2.413-1.14,3.503-0.358l0.559-0.691
			c-0.547-0.542-0.615-1.42-0.119-2.036c0.529-0.656,1.49-0.757,2.145-0.229c0.654,0.531,0.756,1.489,0.227,2.144
			c-0.494,0.612-1.357,0.737-2.002,0.322l-0.563,0.691c0.994,0.905,1.154,2.415,0.377,3.509l0.689,0.56
			c0.504-0.522,1.334-0.587,1.906-0.122c0.293,0.235,0.463,0.563,0.512,0.906C18.271,19.108,18.178,19.506,17.922,19.824z"/>
	</g>
</g>
</svg>
